# xmcd
#
# Track frame offsets:
#	150
#	21869
#	36837
#	55215
#	73359
#	100428
#	122193
#	134829
#	154079
#	176584
#	194820
#
# Disc length: 2937 seconds
# Revision: 0
# Processed by: cddbd v1.5.2PL0 Copyright (c) Steve Scherf et al.
# Submitted via: dBpowerAMP V12.0
#
DISCID=ae0b770b
DTITLE=Andy Thorn - Frontiers Like These
DYEAR=2019
DGENRE=Country
TTITLE0=Coming Round Again
TTITLE1=Blazing New Frontiers
TTITLE2=Star of St. Elmo
TTITLE3=Standing Still
TTITLE4=Thornado
TTITLE5=Above It All
TTITLE6=Five String Picker in a Second String Band
TTITLE7=Isabelle's Wake
TTITLE8=Dealt to You
TTITLE9=A Banjo Oddity
TTITLE10=Warning Call
EXTD=
EXTT0=
EXTT1=
EXTT2=
EXTT3=
EXTT4=
EXTT5=
EXTT6=
EXTT7=
EXTT8=
EXTT9=
EXTT10=
PLAYORDER=
